Coordinates
version=1
nRows=7
nColumns=46
inDegrees=yes

Units are S.I. units (second, meters, Newtons, ...)
Angles are in degrees.

endheader
time	pelvis_tilt	pelvis_list	pelvis_rotation	pelvis_tx	pelvis_ty	pelvis_tz	bb_angle	bb_tx	bb_ty	bb_tz	hip_flexion_r	hip_adduction_r	hip_rotation_r	knee_angle_r	knee_angle_r_beta	ankle_angle_r	subtalar_angle_r	mtp_angle_r	crank_angle_r	hip_flexion_l	hip_adduction_l	hip_rotation_l	knee_angle_l	knee_angle_l_beta	ankle_angle_l	subtalar_angle_l	mtp_angle_l	crank_angle_l	lumbar_extension	lumbar_bending	lumbar_rotation	arm_flex_r	arm_add_r	arm_rot_r	elbow_flex_r	pro_sup_r	wrist_flex_r	wrist_dev_r	arm_flex_l	arm_add_l	arm_rot_l	elbow_flex_l	pro_sup_l	wrist_flex_l	wrist_dev_l
      0.00000000	    -21.95103525	      1.85479447	      1.99934453	      0.10299206	      1.02864130	     -0.23191949	      0.00000000	      0.50000000	      0.00000000	      0.25000000	     55.50809177	     -6.27245170	      1.22239058	     66.15907693	      1.15469372	     13.62249183	     -5.44686067	      0.00000000	      0.00000000	     89.80925548	     -6.15411665	     -1.91308406	     79.38685907	      1.38556207	      8.11350855	     -3.79467540	      0.00000000	      0.00000000	    -51.74666494	     -3.13055006	     -3.33395859	     89.72592343	     -6.52000700	     18.27794533	     47.48259644	     26.43586805	      0.00000000	      0.00000000	     89.76390766	     -8.29629876	     20.29297139	     53.90218764	     26.77549227	      0.00000000	      0.00000000
      0.00500000	    -21.94126908	      1.90244628	      1.97188715	      0.10291097	      1.02861012	     -0.23187856	      0.00000000	      0.50000000	      0.00000000	      0.25000000	     55.52116629	     -6.29064954	      1.26211002	     66.17903385	      1.15504204	     13.64440107	     -5.41083671	      0.00000000	      0.00000000	     89.79619118	     -6.18267318	     -1.97001560	     79.38639124	      1.38555391	      8.11137446	     -3.79179149	      0.00000000	      0.00000000	    -51.72987417	     -3.18716690	     -3.36431038	     89.72688793	     -6.39660134	     17.93266395	     46.93733831	     28.87479385	      0.00000000	      0.00000000	     89.76503836	     -8.25678459	     20.14011942	     53.37961651	     29.05395407	      0.00000000	      0.00000000
      0.01000000	    -21.91237498	      1.88457562	      1.99268345	      0.10284751	      1.02860517	     -0.23191055	      0.00000000	      0.50000000	      0.00000000	      0.25000000	     55.48810046	     -6.30408589	      1.21971438	     66.18082351	      1.15507327	     13.67320532	     -5.40191545	      0.00000000	      0.00000000	     89.78249742	     -6.15798511	     -1.92681925	     79.39798567	      1.38575627	      8.10590961	     -3.74393240	      0.00000000	      0.00000000	    -51.74869121	     -3.15546667	     -3.32214619	     89.72665441	     -6.39251808	     17.73194081	     46.68489663	     30.38651242	      0.00000000	      0.00000000	     89.76574778	     -8.18901163	     20.01506503	     53.10596993	     30.45542651	      0.00000000	      0.00000000
      0.01500000	    -21.95687775	      1.93392906	      1.93297009	      0.10297183	      1.02872518	     -0.23173730	      0.00000000	      0.50000000	      0.00000000	      0.25000000	     55.50655585	     -6.27403704	      1.32685771	     66.13757457	      1.15431844	     13.73808989	     -5.31576719	      0.00000000	      0.00000000	     89.78899083	     -6.27952975	     -2.05708455	     79.38458236	      1.38552234	      8.14033283	     -3.67954338	      0.00000000	      0.00000000	    -51.71530530	     -3.23660915	     -3.27931300	     89.72781202	     -6.35820252	     17.63035135	     46.51596804	     31.09519935	      0.00000000	      0.00000000	     89.76255600	     -8.11532957	     19.93175240	     53.01145506	     31.10905227	      0.00000000	      0.00000000
      0.02000000	    -21.99767756	      1.90201736	      1.89428387	      0.10272475	      1.02875383	     -0.23171215	      0.00000000	      0.50000000	      0.00000000	      0.25000000	     55.57891856	     -6.23624085	      1.30407117	     66.15234284	      1.15457619	     13.69133442	     -5.37230100	      0.00000000	      0.00000000	     89.87303669	     -6.33609254	     -2.04411570	     79.40790846	      1.38592945	      8.07806892	     -3.71947630	      0.00000000	      0.00000000	    -51.63564546	     -3.25114463	     -3.25798984	     89.72375088	     -6.55018460	     18.43721979	     47.71391497	     24.67626240	      0.00000000	      0.00000000	     89.76427452	     -8.17126056	     20.52723507	     54.51273274	     22.25920379	      0.00000000	      0.00000000
      0.02500000	    -22.00597134	      1.95543776	      1.83461039	      0.10265372	      1.02870358	     -0.23161549	      0.00000000	      0.50000000	      0.00000000	      0.25000000	     55.61587420	     -6.22293596	      1.38819171	     66.16829445	      1.15485460	     13.71753694	     -5.31789715	      0.00000000	      0.00000000	     89.87894406	     -6.39406550	     -2.09575460	     79.42319370	      1.38619623	      8.09691350	     -3.68504043	      0.00000000	      0.00000000	    -51.59953810	     -3.33290843	     -3.25423189	     89.72512640	     -6.40092443	     18.02039648	     47.00818698	     27.80300281	      0.00000000	      0.00000000	     89.76458550	     -8.09656414	     20.38642708	     53.59113382	     26.21736791	      0.00000000	      0.00000000
      0.03000000	    -21.95309029	      1.87669230	      1.90912375	      0.10258874	      1.02874657	     -0.23173832	      0.00000000	      0.50000000	      0.00000000	      0.25000000	     55.53584319	     -6.24324350	      1.25390278	     66.15060594	      1.15454588	     13.69378727	     -5.39456739	      0.00000000	      0.00000000	     89.85910951	     -6.31273385	     -1.97398692	     79.43840765	      1.38646177	      8.05687164	     -3.65402117	      0.00000000	      0.00000000	    -51.65034167	     -3.22790574	     -3.14338375	     89.72464042	     -6.79156131	     18.47059742	     46.99899311	     28.84932900	      0.00000000	      0.00000000	     89.76646605	     -8.05686174	     20.44005601	     53.45291037	     27.43437361	      0.00000000	      0.00000000
